<svg enable-background="new 0 0 104 83" height="282.635476" viewBox="0 0 104 83" width="353.812626" xmlns="http://www.w3.org/2000/svg"><path d="m70.598 76.267c.396.401.624.94.624 1.515 0 .593-.222 1.121-.63 1.517-.425.412-.97.64-1.533.64-.575 0-1.109-.228-1.521-.647-.408-.413-.629-.94-.629-1.51s.233-1.12.653-1.546c.395-.401.917-.611 1.498-.611.586.001 1.125.223 1.538.642zm-.197.197c-.36-.364-.821-.557-1.336-.557-.503 0-.965.187-1.306.534-.365.372-.569.85-.569 1.342s.198.953.552 1.313c.353.359.827.557 1.305.557.509 0 .971-.193 1.343-.55.354-.342.546-.805.546-1.3-.001-.523-.188-.99-.535-1.339zm-.264.726c0 .347-.203.587-.557.659l.546 1.114h-.516l-.497-1.043h-.455v1.043h-.462v-2.444h.923c.682 0 1.018.228 1.018.671zm-1.479-.371v.808h.389c.419 0 .617-.101.617-.39 0-.298-.198-.418-.629-.418z" fill="#231f20"/><path d="m101.031 2.208h-44.211l.001 14.065h9.523l-14.134 35.295-14.105-35.295h9.479l-.001-14.065h.001v14.065h-9.479.001 9.478v-14.065h-44.074v14.065h9.467-9.466 9.466l27.899 63.727h22.669l27.977-63.727h9.509z" fill="#231f20"/><path d="m58.098 3.525v11.449h10.178l-16.066 40.388-16.027-40.388h10.104v-11.449h-41.499v11.449h9.098l27.853 63.766h20.896l27.977-63.766h9.102v-11.449z" fill="#fff"/><path d="m52.756 57.221-1.094-.006-17.164-43.41h10.619v-9.11h-39.159v9.11h8.695l27.852 63.765h19.365l27.977-63.765h8.698v-9.11h-39.276v9.11h10.712z" fill="#da1a32"/><path d="m94.418 60.707c-.316 0-.628-.113-.88-.318-.037-.03-3.639-2.927-7.284-4.782-.128.36-.344.949-.64 1.697-.397 1.003-.974 1.213-1.389 1.213-.566 0-1.055-.39-1.373-.684s-.697-.625-1.053-.936c-3.976-3.37-13.971-10.909-29.529-10.944-15.817.034-25.841 7.748-29.823 11.198-.352.312-.77.687-.771.687-.313.288-.801.679-1.367.679-.415 0-.992-.21-1.389-1.213-.289-.73-.501-1.305-.64-1.693-3.642 1.855-7.24 4.748-7.277 4.778-.252.205-.564.318-.88.318-.332 0-.636-.127-.856-.358-.18-.19-.389-.542-.359-1.141.048-.948-.115-10.42-.033-12.016l-7.878-7.562c-.417-.404-.475-.787-.453-1.04.046-.515.449-.83.544-.898 7.171-5.398 14.627-9.024 14.701-9.06.758-.352 1.469-.057 1.785.662.098.224.311.701.481 1.082 2.681-1.748 15.706-9.557 34.214-9.557s31.532 7.81 34.213 9.557c.17-.38.383-.858.481-1.081.316-.719 1.046-1.005 1.779-.665.082.04 7.537 3.665 14.708 9.063.095.067.498.383.545.898.022.252-.036.636-.442 1.03l-7.887 7.571c.082 1.596-.081 11.068-.034 12.016.03.599-.179.951-.359 1.141-.22.23-.523.358-.855.358z" fill="#fff"/><g fill="#231f20"><path d="m103.078 38.1c-7.217-5.434-14.624-9.014-14.624-9.014-.557-.258-.928.008-1.106.412-.178.403-.727 1.63-.727 1.63s-13.618-9.805-34.429-9.806c-20.812 0-34.429 9.806-34.429 9.806s-.549-1.227-.727-1.63c-.177-.403-.549-.67-1.105-.412 0 0-7.407 3.581-14.624 9.014 0 0-.734.493-.047 1.159l8.052 7.721s.074 11.214.022 12.252c-.052 1.039.797 1.154 1.274.766s4.243-3.341 7.883-5.093c0 0 .01.03.027.08.08.238.343 1 .792 2.133.547 1.382 1.365.886 1.952.344 0 0 .42-.376.777-.693 3.267-2.83 13.673-11.285 30.154-11.32 16.019.034 26.246 8.005 29.86 11.068.358.314 1.063.945 1.063.945.587.541 1.405 1.038 1.952-.344.302-.764.52-1.359.655-1.739.112-.286.173-.475.173-.475 3.64 1.752 7.406 4.705 7.883 5.093.478.388 1.327.273 1.274-.766-.053-1.037.021-12.251.021-12.251l8.051-7.721c.687-.666-.047-1.159-.047-1.159zm-92.163 19.745s-.134-10.403-.092-10.98-.368-.892-.368-.892l-7.512-7.219c5.653-4.113 10.847-6.854 10.847-6.854s-2.565 4.642-2.78 5.014c-.215.373-.136.483-.021.792.179.478 6.936 15.789 6.936 15.789-3.438 1.648-7.01 4.35-7.01 4.35zm72.897-1.94c-5.693-4.81-10.697-7.47-15.947-9.427-7.091-2.643-15.668-2.685-15.668-2.685h-.004s-7.049-.189-15.671 2.685c-5.316 1.772-10.254 4.618-15.948 9.427 0 0-7.628-17.676-8.019-18.577 0 0 13.745-14.476 39.633-14.476l.008-.004c25.888 0 39.634 14.48 39.634 14.48-.39.9-8.018 18.577-8.018 18.577zm10.119-9.932s-.41.315-.368.892-.092 10.98-.092 10.98-3.572-2.702-7.011-4.35c0 0 6.757-15.31 6.936-15.789.116-.309.194-.419-.021-.792-.215-.372-2.78-5.014-2.78-5.014s5.195 2.741 10.847 6.854z"/><path d="m34.021 38.623c-.557-1.026-1.589-1.595-2.984-1.645-.072-.003-.143-.004-.214-.004-1.34 0-2.563.438-3.043.634-1.003.381-1.739.343-2.188-.112-.131-.133-.229-.281-.299-.452-.147-.361-.104-.775.123-1.164.268-.46.772-.85 1.458-1.13.63-.257 1.153-.38 1.554-.366.25.009.386.071.446.108l.114.069.406.996c.643-.286 1.348-.579 2.152-.894l-.913-2.238-.038-.008c-1.63-.345-3.22-.208-4.728.407-2.594 1.059-3.856 3.717-3.212 5.297.119.293.28.563.477.805.602.739 1.542 1.168 2.647 1.208.786.03 1.651-.141 2.503-.488 1.377-.547 2.387-.557 2.923-.028.125.123.225.276.298.455.029.071.169.452.036.923-.172.611-.715 1.107-1.614 1.474-.699.285-1.346.418-1.921.399-.492-.018-.759-.148-.788-.162l-.129-.064-.006-.014-.379-.93c-.694.348-1.384.711-2.051 1.079l.857 2.102.036.009c.581.142 1.156.27 1.807.294.994.035 2.038-.183 3.276-.688 1.94-.792 3.159-1.82 3.623-3.055.395-1.052.129-2.006-.065-2.481-.046-.116-.102-.22-.164-.336z"/><path d="m32.787 30.584.811 3.32c.771-.266 1.578-.522 2.398-.761l-.297-1.213.036-.011c.552-.16 1.121-.316 1.692-.463l.039-.01.009.039 1.792 7.337-.172.042c-.351.086-.701.175-1.041.264l.512 2.098c1.658-.435 3.358-.803 5.054-1.093l-.515-2.109c-.203.035-.407.072-.615.11-.191.036-.385.073-.58.111l-.037.007-1.809-7.408.04-.008c.594-.122 1.182-.235 1.747-.334l.036-.006.299 1.224c.795-.135 1.613-.254 2.498-.364l-.818-3.35c-3.8.507-7.527 1.374-11.079 2.578z"/><path d="m68.845 31.948-.303 1.243c.871.258 1.663.512 2.421.776l.818-3.353c-3.56-1.22-7.326-2.098-11.195-2.61l-.819 3.355c.817.103 1.643.227 2.52.377l.304-1.245.036.006c.603.105 1.198.218 1.769.335l.04.008-.01.04-1.8 7.375-.036-.005c-.248-.046-.494-.09-.738-.132-.158-.027-.317-.055-.473-.081l-.513 2.1c1.798.291 3.517.654 5.112 1.081l.511-2.096c-.108-.029-.217-.056-.325-.084l-.105-.027c-.253-.065-.505-.127-.757-.187l-.038-.009.01-.038 1.787-7.322.039.01c.565.146 1.141.306 1.711.473z"/><path d="m73.442 31.214-.923 1.96c.24.09.5.19.815.315.211.083.422.167.633.253l.038.016-.018.038-3.172 6.733-.034-.013c-.071-.027-.141-.054-.212-.082-.109-.042-.218-.084-.328-.125-.107-.04-.215-.078-.322-.117l-.113-.04c-.164-.059-.328-.116-.493-.173l-.925 1.965c.407.136.767.263 1.1.387 3.05 1.137 5.961 2.462 8.651 3.939l1.467-3.113c-.54-.294-1.11-.593-1.741-.912l-.545 1.157-.036-.018c-1.27-.642-2.592-1.257-3.93-1.828l-.038-.016.017-.037 1.077-2.287 2.74 1.291.838-1.78-2.74-1.291.017-.036 1.204-2.555.036.017c.889.419 1.67.809 2.385 1.191.482.257.976.53 1.469.809l.032.018-.015.033-.531 1.126c.572.326 1.143.664 1.698 1.004l1.473-3.126c-1.013-.612-2.059-1.207-3.109-1.768-2.069-1.108-4.244-2.094-6.465-2.935z"/><path d="m58.009 37.574-.023-.002-.009-.021-4.352-10.074c-.092-.002-.184-.004-.276-.007-.223-.006-.447-.012-.672-.013l-.493.002c-.367 0-.737.003-1.099.009l-4.463 10.049-.022.002c-.22.025-.444.052-.673.081-.215.027-.435.056-.658.087v2.188c2.368-.337 4.273-.459 5.469-.503v-2.164c-.103.003-.209.007-.321.012-.269.011-.553.025-.844.042l-.063.004.581-1.388.025-.001c1.22-.055 2.011-.043 2.225-.038.251.003.948.016 1.985.072l.024.001.01.022.589 1.37-.064-.004c-.274-.017-.528-.032-.765-.044-.144-.007-.284-.014-.413-.02v2.16c1.257.057 3.227.191 5.55.503v-2.174c-.256-.033-.506-.064-.753-.093-.167-.02-.332-.04-.495-.058zm-4.599-3.706c-.516-.02-.868-.026-1.033-.028h-.001c-.173-.004-.653-.011-1.375.007l-.061.002.023-.056 1.22-2.916.037.085 1.251 2.908z"/></g></svg>